<svg width="34" height="31" viewBox="0 0 34 31" fill="none" xmlns="http://www.w3.org/2000/svg">
<g clip-path="url(#clip0_1_4)">
<path d="M26 3.36585C26 2.47317 25.6576 1.61706 25.0481 0.985836C24.4386 0.354616 23.612 0 22.75 0H3.25C2.38805 0 1.5614 0.354616 0.951903 0.985836C0.34241 1.61706 0 2.47317 0 3.36585L0 19.6341C0 20.5268 0.34241 21.3829 0.951903 22.0142C1.5614 22.6454 2.38805 23 3.25 23H22.75C23.612 23 24.4386 22.6454 25.0481 22.0142C25.6576 21.3829 26 20.5268 26 19.6341V3.36585ZM10.4585 2.2439C10.5489 2.07409 10.6816 1.9325 10.8428 1.83389C11.004 1.73528 11.1878 1.68327 11.375 1.68327C11.5622 1.68327 11.746 1.73528 11.9072 1.83389C12.0684 1.9325 12.2011 2.07409 12.2915 2.2439C12.3957 2.41152 12.4534 2.60558 12.4583 2.80488C12.4533 3.00415 12.3956 3.19817 12.2915 3.36585C12.2011 3.53566 12.0684 3.67725 11.9072 3.77586C11.746 3.87447 11.5622 3.92649 11.375 3.92649C11.1878 3.92649 11.004 3.87447 10.8428 3.77586C10.6816 3.67725 10.5489 3.53566 10.4585 3.36585C10.3544 3.19817 10.2967 3.00415 10.2917 2.80488C10.2966 2.60558 10.3543 2.41152 10.4585 2.2439V2.2439ZM6.66683 2.2439C6.75721 2.07409 6.88992 1.9325 7.05112 1.83389C7.21232 1.73528 7.39611 1.68327 7.58333 1.68327C7.77056 1.68327 7.95435 1.73528 8.11555 1.83389C8.27675 1.9325 8.40946 2.07409 8.49983 2.2439C8.60406 2.41152 8.66177 2.60558 8.66667 2.80488C8.66161 3.00415 8.60391 3.19817 8.49983 3.36585C8.40946 3.53566 8.27675 3.67725 8.11555 3.77586C7.95435 3.87447 7.77056 3.92649 7.58333 3.92649C7.39611 3.92649 7.21232 3.87447 7.05112 3.77586C6.88992 3.67725 6.75721 3.53566 6.66683 3.36585C6.56276 3.19817 6.50506 3.00415 6.5 2.80488C6.5049 2.60558 6.56261 2.41152 6.66683 2.2439V2.2439ZM2.808 2.346C2.89313 2.14929 3.03117 1.98214 3.20562 1.86455C3.38006 1.74696 3.58353 1.68391 3.79167 1.68293C3.97853 1.68493 4.16159 1.73782 4.32246 1.83629C4.48334 1.93476 4.61636 2.07534 4.70817 2.2439C4.81239 2.41152 4.87011 2.60558 4.875 2.80488C4.86994 3.00415 4.81224 3.19817 4.70817 3.36585C4.61779 3.53566 4.48509 3.67725 4.32388 3.77586C4.16268 3.87447 3.97889 3.92649 3.79167 3.92649C3.60445 3.92649 3.42065 3.87447 3.25945 3.77586C3.09825 3.67725 2.96554 3.53566 2.87517 3.36585C2.7711 3.19817 2.71339 3.00415 2.70833 2.80488C2.70944 2.64629 2.74343 2.4898 2.808 2.346V2.346ZM23.8333 19.6341C23.8333 19.9317 23.7192 20.2171 23.516 20.4275C23.3129 20.6379 23.0373 20.7561 22.75 20.7561H3.25C2.96268 20.7561 2.68713 20.6379 2.48397 20.4275C2.2808 20.2171 2.16667 19.9317 2.16667 19.6341V5.88912C2.16667 5.81473 2.1952 5.74339 2.24599 5.69079C2.29678 5.63819 2.36567 5.60863 2.4375 5.60863H23.5625C23.6343 5.60863 23.7032 5.63819 23.754 5.69079C23.8048 5.74339 23.8333 5.81473 23.8333 5.88912V19.6341Z" fill="#438FF1"/>
<path d="M24.3051 14.306C24.3049 14.058 24.381 13.8193 24.5181 13.6196C24.6552 13.4202 24.8455 13.2702 25.0605 13.1814L25.0608 13.1813C25.3616 13.0572 25.6847 12.9959 26.0094 13.0002C26.6514 13.0036 27.2762 13.238 27.7569 13.6684C27.9042 13.8002 28.0346 13.9476 28.1462 14.1074C28.1833 14.0873 28.2215 14.0692 28.2605 14.0531L28.2608 14.053C28.5616 13.9289 28.8847 13.8676 29.2094 13.8719C29.8514 13.8753 30.4762 14.1097 30.9569 14.5401C31.3102 14.8564 31.567 15.2626 31.6974 15.713C31.9279 15.6451 32.1677 15.6122 32.4085 15.6153M24.3051 14.306V14.3053H25.3051L24.3051 14.3075C24.3051 14.307 24.3051 14.3065 24.3051 14.306ZM24.3051 14.306V14.3449M24.3051 14.3449C23.8398 14.0226 23.279 13.8595 22.7111 13.8778C22.0523 13.899 21.4187 14.1633 20.9468 14.6287C20.4737 15.0952 20.2003 15.7287 20.2 16.398L21.2 16.3991M24.3051 14.3449V14.7616V15.897C24.2176 15.6581 24.0682 15.4417 23.868 15.2692C23.5606 15.0044 23.1573 14.8639 22.7433 14.8772C22.3293 14.8906 21.9369 15.0568 21.649 15.3407C21.361 15.6246 21.2 16.0041 21.2 16.3991M24.3051 14.3449C24.3795 14.3964 24.4514 14.4519 24.5205 14.5115C24.8995 14.8378 25.173 15.266 25.3051 15.7428L20.1954 20.591L20.1965 19.5486M21.2 16.3991L20.2 16.399L20.1965 19.5486M21.2 16.3991L21.1957 20.3228C21.1309 20.155 21.0296 20.0036 20.8997 19.8797C20.7034 19.6925 20.4552 19.5798 20.1965 19.5486M20.1965 19.5486C20.1473 19.5426 20.0977 19.5396 20.048 19.5396L19.6 19.5396L19.5989 19.5396C18.9248 19.5404 18.2696 19.7956 17.7791 20.2632C17.287 20.7324 17.0008 21.3789 17 22.0639V22.0651V25.5519C17 26.2425 17.2577 26.9817 17.6208 27.6547C17.9934 28.3452 18.5206 29.0475 19.1598 29.6782C20.4242 30.9257 22.2417 32 24.3177 32H29.2H29.2011C30.7236 31.9983 32.1922 31.4214 33.2826 30.3818C34.3745 29.3407 34.9982 27.9187 35 26.4248V26.4236V18.1425C35 17.4569 34.7141 16.8096 34.2219 16.3398C33.7332 15.8733 33.0804 15.6179 32.4085 15.6153M32.4085 15.6153C32.411 15.6153 32.4135 15.6154 32.4161 15.6154L32.4 16.6153M32.4085 15.6153C32.406 15.6153 32.4035 15.6153 32.4011 15.6153L32.4 16.6153M32.4 16.6153C32.2083 16.6122 32.0182 16.6481 31.8423 16.7207L32.4 16.6153Z" fill="#438FF1" stroke="#D9E9FC" stroke-width="2"/>
</g>
<defs>
<clipPath id="clip0_1_4">
<rect width="34" height="31" fill="white"/>
</clipPath>
</defs>
</svg>
