<?xml version="1.0" encoding="utf-8"?>
<!-- Generator: Adobe Illustrator 26.2.1, SVG Export Plug-In . SVG Version: 6.00 Build 0)  -->
<svg version="1.1" id="Layer_1" xmlns="http://www.w3.org/2000/svg" xmlns:xlink="http://www.w3.org/1999/xlink" x="0px" y="0px"
	 viewBox="0 0 34 31" style="enable-background:new 0 0 34 31;" xml:space="preserve">
<style type="text/css">
	.st0{fill:#438FF1;}
</style>
<g>
	<path class="st0" d="M24.2,14.3C24.3,14.3,24.3,14.3,24.2,14.3L24.2,14.3L24.2,14.3z"/>
	<polygon class="st0" points="25.3,14.9 26,14.9 26,14.3 25.3,14.8 	"/>
	<path class="st0" d="M16,22.1c0-0.5,0.1-0.9,0.3-1.3h-13c-0.3,0-0.6-0.1-0.8-0.3c-0.2-0.2-0.3-0.5-0.3-0.8V5.9c0-0.1,0-0.1,0.1-0.2
		c0.1-0.1,0.1-0.1,0.2-0.1h21.1c0.1,0,0.1,0,0.2,0.1c0.1,0.1,0.1,0.1,0.1,0.2v7c0.2-0.3,0.5-0.5,0.8-0.6c0.4-0.2,0.9-0.3,1.3-0.3
		V3.4c0-0.9-0.3-1.7-1-2.4c-0.6-0.6-1.4-1-2.3-1H3.2C2.4,0,1.6,0.4,1,1C0.3,1.6,0,2.5,0,3.4v16.3c0,0.9,0.3,1.7,1,2.4
		c0.6,0.6,1.4,1,2.3,1H16V22.1z M10.5,2.2c0.1-0.2,0.2-0.3,0.4-0.4c0.2-0.1,0.3-0.2,0.5-0.2s0.4,0.1,0.5,0.2
		c0.2,0.1,0.3,0.2,0.4,0.4c0.1,0.2,0.2,0.4,0.2,0.6c0,0.2-0.1,0.4-0.2,0.6c-0.1,0.2-0.2,0.3-0.4,0.4c-0.2,0.1-0.3,0.2-0.5,0.2
		S11,3.9,10.8,3.8c-0.2-0.1-0.3-0.2-0.4-0.4c-0.1-0.2-0.2-0.4-0.2-0.6C10.3,2.6,10.4,2.4,10.5,2.2z M6.7,2.2
		c0.1-0.2,0.2-0.3,0.4-0.4c0.2-0.1,0.3-0.2,0.5-0.2c0.2,0,0.4,0.1,0.5,0.2c0.2,0.1,0.3,0.2,0.4,0.4c0.1,0.2,0.2,0.4,0.2,0.6
		c0,0.2-0.1,0.4-0.2,0.6C8.4,3.5,8.3,3.7,8.1,3.8C8,3.9,7.8,3.9,7.6,3.9c-0.2,0-0.4-0.1-0.5-0.2C6.9,3.7,6.8,3.5,6.7,3.4
		C6.6,3.2,6.5,3,6.5,2.8C6.5,2.6,6.6,2.4,6.7,2.2z M2.8,2.3C2.9,2.1,3,2,3.2,1.9c0.2-0.1,0.4-0.2,0.6-0.2c0.2,0,0.4,0.1,0.5,0.2
		c0.2,0.1,0.3,0.2,0.4,0.4c0.1,0.2,0.2,0.4,0.2,0.6c0,0.2-0.1,0.4-0.2,0.6C4.6,3.5,4.5,3.7,4.3,3.8C4.2,3.9,4,3.9,3.8,3.9
		c-0.2,0-0.4-0.1-0.5-0.2C3.1,3.7,3,3.5,2.9,3.4C2.8,3.2,2.7,3,2.7,2.8C2.7,2.6,2.7,2.5,2.8,2.3z"/>
</g>
<path class="st0" d="M32.4,16.6c-0.2,0-0.4,0-0.6,0.1c0,0-0.1,0-0.1,0.1c0,0,0,0.1,0,0.1v4.4c0,0.1,0,0.2-0.1,0.3
	c-0.1,0.1-0.2,0.1-0.3,0.1s-0.2,0-0.3-0.1c-0.1-0.1-0.1-0.2-0.1-0.3v-5c0-0.4-0.2-0.7-0.5-1c-0.3-0.3-0.7-0.4-1.1-0.4
	c-0.2,0-0.4,0-0.6,0.1c0,0-0.1,0-0.1,0.1c0,0,0,0.1,0,0.1v5.7c0,0.1,0,0.2-0.1,0.3c-0.1,0.1-0.2,0.1-0.3,0.1s-0.2,0-0.3-0.1
	c-0.1-0.1-0.1-0.2-0.1-0.3v-5.4c0-0.4-0.2-0.7-0.5-1C26.8,14.1,26.4,14,26,14c-0.2,0-0.4,0-0.6,0.1c0,0-0.1,0-0.1,0.1
	c0,0,0,0.1,0,0.1v6.1c0,0.1,0,0.2-0.1,0.3c-0.1,0.1-0.2,0.1-0.3,0.1s-0.2,0-0.3-0.1c-0.1-0.1-0.1-0.2-0.1-0.3v-4.1
	c0-0.4-0.2-0.8-0.5-1c-0.3-0.3-0.7-0.4-1.1-0.4c-0.4,0-0.8,0.2-1.1,0.5c-0.3,0.3-0.4,0.7-0.4,1.1l0,8.3c0,0.1,0,0.2-0.1,0.3
	c-0.1,0.1-0.2,0.1-0.3,0.1c-0.1,0-0.2,0-0.3-0.1c-0.1-0.1-0.1-0.2-0.1-0.3v-3.9c0-0.1,0-0.1-0.1-0.2c0,0-0.1-0.1-0.2-0.1h-0.4
	c-0.4,0-0.8,0.2-1.1,0.4c-0.3,0.3-0.5,0.7-0.5,1.1v3.5c0,1.8,2.9,5.4,6.3,5.4h4.9c1.3,0,2.5-0.5,3.4-1.3c0.9-0.9,1.4-2,1.4-3.2v-8.3
	c0-0.4-0.2-0.8-0.5-1.1C33.2,16.8,32.8,16.6,32.4,16.6z"/>
</svg>
